<svg xmlns="http://www.w3.org/2000/svg" xmlns:xlink="http://www.w3.org/1999/xlink" fill="none" version="1.1" width="41" height="17" viewBox="0 0 41 17"><g style="mix-blend-mode:passthrough"><g style="mix-blend-mode:passthrough"></g><g style="mix-blend-mode:passthrough"></g><g style="mix-blend-mode:passthrough"><g><path d="M18.853792802001955,10.1221L18.853400802001953,10.1217C18.759682802001954,10.0282,18.632710802001952,9.97571,18.50033480200195,9.97571L18.499727802001953,9.97571C18.367141802001953,9.97587,18.240049802001952,10.0287,18.146410802001952,10.1226C18.052919402001955,10.2163,18.000415802001953,10.3433,18.000415802001953,10.4756L18.000416189367954,10.4762C18.000576768001952,10.6088,18.05340040200195,10.7359,18.147266802001955,10.8296L18.147804802001954,10.8301Q19.204245802001953,11.8836,20.759905802001953,11.99Q22.397065802001954,12.1019,23.440655802001952,11.0612L28.05771580200195,6.45533Q29.101415802001952,5.41368,28.989115802001955,3.77901Q28.882315802001955,2.22585,27.825615802001956,1.17133Q26.769355802001954,0.117237,25.213075802001953,0.010866Q23.575745802001954,-0.101044,22.532155802001952,0.939629L19.415375802001954,4.04887C19.321345802001954,4.14268,19.268525802001953,4.26977,19.268365802001952,4.40236L19.268355802001953,4.40296L19.268905802001953,4.42637C19.274725802001953,4.55052,19.326585802001954,4.66804,19.414355802001953,4.75603C19.507995802001954,4.8499,19.635085802001953,4.90272,19.767675802001953,4.90288L19.768275802001952,4.90288L19.791685802001954,4.90233C19.915835802001954,4.89651,20.033355802001953,4.84466,20.121345802001954,4.75689L20.121715802001955,4.75652L23.238155802001952,1.64761Q23.960365802001952,0.927414,25.144895802001955,1.00838Q26.327915802001954,1.08923,27.119345802001952,1.87904Q27.910535802001952,2.66862,27.991595802001953,3.84759Q28.07271580200195,5.02776,27.351535802001955,5.74749L22.734655802001953,10.3532Q22.012445802001952,11.0734,20.828085802001954,10.9924Q19.645485802001954,10.9116,18.853792802001955,10.1221Z" fill-rule="evenodd" fill="#393A34" fill-opacity="1"/></g><g><path d="M22.1462,6.877863177947998L22.1466,6.878293177947998C22.240299999999998,6.971783177947998,22.3673,7.024283177947998,22.4997,7.024283177947998L22.5003,7.024283177947998C22.6329,7.024123177947998,22.759999999999998,6.971303177947998,22.8536,6.877433177947998C22.9471,6.783713177947998,22.9996,6.656743177947998,22.9996,6.524363177947998L22.9996,6.523763177947998C22.9994,6.391173177947998,22.9466,6.264083177947998,22.8527,6.170443177947998L22.852,6.1697331779479985Q21.79562,5.116374177947998,20.240099999999998,5.010048477947998Q18.60293,4.898142177947998,17.559350000000002,5.938812177947998L12.942329,10.544663177948Q11.898538,11.586323177947998,12.0109247,13.220993177947998Q12.117708,14.774153177947998,13.17439,15.828683177947998Q14.230640000000001,16.882783177948,15.78693,16.989183177948Q17.42426,17.101083177948,18.46784,16.060383177947998L21.58482,12.950483177947998C21.67882,12.856703177947999,21.73164,12.729373177947998,21.73164,12.596593177947998L21.731,12.571293177947998C21.72474,12.447813177947998,21.67295,12.331023177947998,21.58562,12.243493177947997C21.49184,12.149493177947999,21.36451,12.096673177947999,21.23172,12.096673177947999L21.206429999999997,12.097313177948C21.08294,12.103573177947998,20.966160000000002,12.155363177947997,20.87863,12.242693177947999L17.76184,15.352383177947997Q17.03963,16.072583177947998,15.8551,15.991583177947998Q14.67208,15.910783177947998,13.88066,15.120983177947998Q13.08946,14.331383177947998,13.00841,13.152413177947999Q12.927266,11.972233177947999,13.64846,11.252513177947998L18.265349999999998,6.646793177947998Q18.98755,5.9266021779479985,20.17192,6.007553177947998Q21.35449,6.088393177947998,22.1462,6.877863177947998Z" fill-rule="evenodd" fill="#393A34" fill-opacity="1"/></g></g></g></svg>
