<svg xmlns="http://www.w3.org/2000/svg" xmlns:xlink="http://www.w3.org/1999/xlink" fill="none" version="1.1" width="50.046875" height="16.921875" viewBox="0 0 50.046875 16.921875"><g style="mix-blend-mode:passthrough"><path d="M11.4453,0L11.4453,16.9219L8.22656,16.9219L3.21094,7.25L3.21094,16.9219L0,16.9219L0,0L3.21094,0L8.22656,9.77344L8.22656,0L11.4453,0ZM14.5,14.1406L14.5,0L17.8594,0L17.8594,13.4141L22.6562,13.4141L22.6562,0L26.0156,0L26.0156,16.9219L17.375,16.9219Q16.0781,16.9219,15.2891,16.1562Q14.5,15.3828,14.5,14.1406ZM38.0469,13.3906L38.0469,16.9219L31.1328,16.9219Q30.1719,16.9219,29.5859,16.3125Q29,15.6953,29,14.7109L29,0L32.5703,0L32.5703,13.3906L38.0469,13.3906ZM50.0469,13.3906L50.0469,16.9219L43.1328,16.9219Q42.1719,16.9219,41.5859,16.3125Q41,15.6953,41,14.7109L41,0L44.5703,0L44.5703,13.3906L50.0469,13.3906Z" fill="#FF0000" fill-opacity="1"/></g></svg>
