<svg xmlns="http://www.w3.org/2000/svg" xmlns:xlink="http://www.w3.org/1999/xlink" fill="none" version="1.1" width="42" height="17" viewBox="0 0 42 17"><g style="mix-blend-mode:passthrough"><path d="M7.78377,2.80194L7.78377,7.04017Q7.78377,8.27239,7.11737,9.05725Q6.45643,9.84211,5.51691,9.84211L2.34879,9.84211L2.34879,17L0,17L0,0L5.51691,0Q6.45643,0,7.11737,0.784857Q7.78377,1.56971,7.78377,2.80194ZM5.18372,6.3181L5.18372,3.2807L2.34879,3.2807L2.34879,6.3181L5.18372,6.3181ZM16.9851,17L14.7019,17L14.03,14.0332L11.1241,14.0332L10.4741,17L8.14166,17L11.2279,0L13.9262,0L16.9851,17ZM12.517,5.79224L11.5938,11.0194L13.5111,11.0194L12.517,5.79224ZM25.0885,3.54755L22.27,3.54755L22.27,17L19.7683,17L19.7683,3.54755L17.0043,3.54755L17.0043,0L25.0885,0L25.0885,3.54755ZM27.8826,3.2807L27.8826,13.476L33.0827,13.476L33.0827,17L27.5439,17Q26.6372,17,26.0855,16.2308Q25.5338,15.4538,25.5338,14.2059L25.5338,2.80194Q25.5338,1.54617,26.0855,0.777008Q26.6372,0,27.5439,0L33.0827,0L33.0827,3.2807L27.8826,3.2807ZM42,0L42,17L39.6184,17L39.6184,9.81856L35.9259,9.81856L35.9259,17L33.5444,17L33.5444,0L35.9259,0L35.9259,6.6085L39.6184,6.6085L39.6184,0L42,0Z" fill="#CC2C84" fill-opacity="1"/></g></svg>
