<svg xmlns="http://www.w3.org/2000/svg" xmlns:xlink="http://www.w3.org/1999/xlink" fill="none" version="1.1" width="42" height="17" viewBox="0 0 42 17"><g style="mix-blend-mode:passthrough"><path d="M0,0L9.52786,0L9.52786,9.54372L4.02724,9.86L4.02724,17L0,17L0,0ZM4.02724,6.94233L6.88733,6.77628L6.88733,2.90977L4.02724,2.90977L4.02724,6.94233ZM20.1651,0L20.1651,16.4386L10.6141,17L10.6141,0L20.1651,0ZM14.6471,13.8451L17.5188,13.6712L17.5188,2.90977L14.6471,2.90977L14.6471,13.8451ZM21.4478,0L30.9756,0L30.9756,4.03256L28.3351,4.03256L28.3351,2.90977L25.475,2.90977L25.475,6.89488L30.9756,6.89488L30.9756,17L21.4478,16.4386L21.4478,13.3074L28.3351,13.7186L28.3351,9.81256L21.4478,9.81256L21.4478,0ZM42,0L42,2.90977L38.8972,2.90977L38.8972,17L34.87,17L34.87,2.90977L31.7094,2.90977L31.7094,0L42,0Z" fill="#D87A16" fill-opacity="1"/></g></svg>
