<svg xmlns="http://www.w3.org/2000/svg" xmlns:xlink="http://www.w3.org/1999/xlink" fill="none" version="1.1" width="42.2890625" height="16.796875" viewBox="0 0 42.2890625 16.796875"><g style="mix-blend-mode:passthrough"><path d="M0,0L12.8828,0L12.8828,9.42969L5.44531,9.74219L5.44531,16.7969L0,16.7969L0,0ZM5.44531,6.85938L9.3125,6.69531L9.3125,2.875L5.44531,2.875L5.44531,6.85938ZM24.0469,13.5078L24.0469,0L27.625,0L27.625,16.2422L14.0859,16.7969L14.0859,0L19.5391,0L19.5391,13.7031L24.0469,13.5078ZM42.2891,0L42.2891,2.875L38.0938,2.875L38.0938,16.7969L32.6484,16.7969L32.6484,2.875L28.375,2.875L28.375,0L42.2891,0Z" fill="#177DDC" fill-opacity="1"/></g></svg>
