<svg xmlns="http://www.w3.org/2000/svg" xmlns:xlink="http://www.w3.org/1999/xlink" fill="none" version="1.1" width="50" height="50" viewBox="0 0 50 50"><g><g><path d="M24.9998,2.38323C37.4908,2.38323,47.6164,12.5087,47.6164,25.0001C47.6164,37.4909,37.4908,47.617,24.9998,47.617C12.5092,47.617,2.3832,37.4909,2.3832,25.0001C2.3832,12.5093,12.5092,2.38323,24.9998,2.38323ZM24.9998,0C11.2146,0,0,11.215,0,25.0001C0,38.7852,11.2148,50,24.9998,50C38.7848,50,50,38.785,50,25.0003C50,11.2148,38.7848,0,24.9998,0Z" fill="#D7DAE0" fill-opacity="1"/></g><g><path d="M15.87433,16.59275C15.79848,17.4297,15.90244,18.29512,15.846219999999999,19.14143C15.7798,19.988129999999998,15.675460000000001,20.82508,15.5049,21.662219999999998C15.26811,22.8565,14.51923,23.7596,13.486979999999999,24.512C15.49604,25.8101,15.7232,27.822400000000002,15.85565,29.8636C15.92207,30.9642,15.89358,32.0738,16.00735,33.164699999999996C16.09264,34.010999999999996,16.42414,34.2275,17.30585,34.2554C17.66585,34.2646,18.03471,34.2554,18.452460000000002,34.2554L18.452460000000002,36.870000000000005C15.8468,37.312,13.69586,36.5786,13.16471,34.3875C12.99396,33.588,12.88018,32.7696,12.84264,31.942C12.78547,31.0672,12.88018,30.1926,12.81415,29.318C12.62452,26.9193,12.31169,26.1107,10,25.997700000000002L10,23.0164C10.16564,22.979,10.333259,22.950699999999998,10.502073,22.931800000000003C11.771889999999999,22.8659,12.31169,22.4801,12.5866,21.23878C12.71943,20.543039999999998,12.79528,19.83756,12.82339,19.122709999999998C12.91849,17.75913,12.88057,16.36728,13.11697,15.01306C13.44848,13.0661,14.66189,12.125394,16.68038,12.0126542C17.24868,11.984183,17.82679,12.0126542,18.48037,12.0126542L18.48037,14.68401C18.20566,14.70312,17.96867,14.74019,17.722450000000002,14.74019C16.08321,14.683440000000001,15.99754,15.23835,15.87433,16.59275ZM19.029609999999998,22.7812L18.991880000000002,22.7812C18.04414,22.7344,17.22942,23.4678,17.18168,24.4083C17.13432,25.3584,17.87319,26.1674,18.82093,26.214L18.93451,26.214C19.87301,26.2706,20.6779,25.5554,20.7349,24.6244L20.7349,24.5306C20.7541,23.5807,19.98678,22.8003,19.029609999999998,22.7812ZM24.9709,22.7812C24.0519,22.7529,23.2839,23.4678,23.2558,24.3706C23.2558,24.4274,23.2558,24.4744,23.265700000000002,24.5306C23.265700000000002,25.555799999999998,23.9666,26.214399999999998,25.028100000000002,26.214399999999998C26.0704,26.214399999999998,26.7245,25.5372,26.7245,24.4744C26.7147,23.448999999999998,26.0226,22.7718,24.9709,22.7812ZM31.0547,22.7812C30.0883,22.7621,29.2824,23.5245,29.2543,24.483800000000002C29.2518,25.4404,30.0338,26.2165,30.9975,26.2138L31.0168,26.2138C31.8885,26.3644,32.769800000000004,25.5275,32.8268,24.5212C32.873599999999996,23.5899,32.0209,22.7812,31.0547,22.7812ZM39.4026,22.922C38.303200000000004,22.8752,37.7534,22.508499999999998,37.4791,21.47343C37.3087,20.81113,37.204,20.13389,37.166399999999996,19.45137C37.0904,18.19098,37.0998,16.92123,37.0145,15.66084C36.8157,12.670175,34.6366,11.626283,31.4713,12.142974L31.4713,14.73943C31.9732,14.73943,32.3619,14.73943,32.7506,14.74879C33.4234,14.75796,33.9351,15.01229,34.0011,15.75542C34.067499999999995,16.43243,34.067499999999995,17.119,34.134,17.80575C34.2672,19.1699,34.3424,20.55202,34.5794,21.89687C34.7883,23.0069,35.555499999999995,23.8345,36.512299999999996,24.511699999999998C34.835499999999996,25.6308,34.342600000000004,27.2295,34.2572,29.0262C34.21,30.2583,34.1813,31.4996,34.1155,32.7415C34.0583,33.8698,33.660799999999995,34.2365,32.5142,34.2648C32.191900000000004,34.2744,31.8792,34.3026,31.5191,34.3215L31.5191,36.9834C32.191900000000004,36.9834,32.8077,37.0208,33.4234,36.9834C35.3373,36.8702,36.4934,35.9486,36.8728,34.1051C37.0336,33.090199999999996,37.1285,32.0661,37.157,31.0391C37.223,30.0984,37.214200000000005,29.1485,37.3087,28.2176C37.4506,26.7596,38.123400000000004,26.1577,39.5923,26.064C39.7345,26.0449,39.867000000000004,26.017,40,25.97L40,22.988300000000002C39.7532,22.959899999999998,39.5822,22.932000000000002,39.4026,22.922Z" fill="#D7DAE0" fill-opacity="1"/></g></g></svg>
