<svg xmlns="http://www.w3.org/2000/svg" xmlns:xlink="http://www.w3.org/1999/xlink" fill="none" version="1.1" width="43" height="17" viewBox="0 0 43 17"><g style="mix-blend-mode:passthrough"><path d="M7.63924,2.80194L7.63924,14.2059Q7.63924,15.4538,7.13095,16.2308Q6.62765,17,5.80044,17L0,17L0,0L5.80044,0Q6.62765,0,7.13095,0.777008Q7.63924,1.54617,7.63924,2.80194ZM5.49148,13.476L5.49148,3.2807L2.14277,3.2807L2.14277,13.476L5.49148,13.476ZM10.2395,3.2807L10.2395,6.72622L14.6795,6.72622L14.6795,9.81856L10.2395,9.81856L10.2395,13.476L14.6795,13.476L14.6795,17L8.0967,17L8.0967,0L14.6795,0L14.6795,3.2807L10.2395,3.2807ZM21.1168,13.4524L21.1168,17L16.7067,17Q16.0937,17,15.72,16.3878Q15.3463,15.7678,15.3463,14.7789L15.3463,0L17.6236,0L17.6236,13.4524L21.1168,13.4524ZM23.7619,3.2807L23.7619,6.72622L28.2019,6.72622L28.2019,9.81856L23.7619,9.81856L23.7619,13.476L28.2019,13.476L28.2019,17L21.6191,17L21.6191,0L28.2019,0L28.2019,3.2807L23.7619,3.2807ZM36.0146,3.54755L33.4432,3.54755L33.4432,17L31.1609,17L31.1609,3.54755L28.6394,3.54755L28.6394,0L36.0146,0L36.0146,3.54755ZM38.56,3.2807L38.56,6.72622L43,6.72622L43,9.81856L38.56,9.81856L38.56,13.476L43,13.476L43,17L36.4172,17L36.4172,0L43,0L43,3.2807L38.56,3.2807Z" fill="#D84A1B" fill-opacity="1"/></g></svg>
