<svg xmlns="http://www.w3.org/2000/svg" xmlns:xlink="http://www.w3.org/1999/xlink" fill="none" version="1.1" width="80" height="17" viewBox="0 0 80 17"><g style="mix-blend-mode:passthrough"><path d="M10.623,0L12.9659,4.08L12.9659,16.4386L0,17L0,0L10.623,0ZM5.07867,2.90977L5.07867,13.8688L9.63347,13.6712L9.63347,5.07628L8.38199,2.90977L5.07867,2.90977ZM25.9827,0L25.9827,2.90977L19.0268,2.90977L19.0268,6.5786L25.9609,6.5786L25.9609,9.49628L19.0268,9.49628L19.0268,13.8451L25.9609,13.5288L25.9609,16.4386L13.9554,17L13.9554,0L25.9827,0ZM32.0873,0L32.0873,14.0823L39.3925,14.0823L39.3925,17L27.0086,17L27.0086,0L32.0873,0ZM52.9914,0L52.9914,2.90977L46.0355,2.90977L46.0355,6.5786L52.9695,6.5786L52.9695,9.49628L46.0355,9.49628L46.0355,13.8451L52.9695,13.5288L52.9695,16.4386L40.9641,17L40.9641,0L52.9914,0ZM66.7576,0L66.7576,2.90977L62.8504,2.90977L62.8504,17L57.779,17L57.779,2.90977L53.799,2.90977L53.799,0L66.7576,0ZM80,0L80,2.90977L73.0441,2.90977L73.0441,6.5786L79.9782,6.5786L79.9782,9.49628L73.0441,9.49628L73.0441,13.8451L79.9782,13.5288L79.9782,16.4386L67.9727,17L67.9727,0L80,0Z" fill="#D84A1B" fill-opacity="1"/></g></svg>
