<svg xmlns="http://www.w3.org/2000/svg" xmlns:xlink="http://www.w3.org/1999/xlink" fill="none" version="1.1" width="42.2890625" height="16.796875" viewBox="0 0 42.2890625 16.796875"><g style="mix-blend-mode:passthrough"><path d="M5.44531,2.875L5.44531,13.6797L9.3125,13.5078L9.3125,10.7266L7.34375,10.7266L7.34375,7.84375L12.8828,7.84375L12.8828,16.2422L0,16.7969L0,0L12.9062,0L12.9062,2.875L5.44531,2.875ZM27.5078,0L27.5078,2.875L20.0391,2.875L20.0391,6.5L27.4844,6.5L27.4844,9.38281L20.0391,9.38281L20.0391,13.6797L27.4844,13.3672L27.4844,16.2422L14.5938,16.7969L14.5938,0L27.5078,0ZM42.2891,0L42.2891,2.875L38.0938,2.875L38.0938,16.7969L32.6484,16.7969L32.6484,2.875L28.375,2.875L28.375,0L42.2891,0Z" fill="#66BB6A" fill-opacity="1"/></g></svg>
