<svg xmlns="http://www.w3.org/2000/svg" xmlns:xlink="http://www.w3.org/1999/xlink" fill="none" version="1.1" width="42" height="17" viewBox="0 0 42 17"><g style="mix-blend-mode:passthrough"><path d="M10.6263,0L10.6263,17L7.63337,17L7.63337,9.81856L2.99294,9.81856L2.99294,17L0,17L0,0L2.99294,0L2.99294,6.6085L7.63337,6.6085L7.63337,0L10.6263,0ZM14.1258,3.2807L14.1258,6.72622L20.2422,6.72622L20.2422,9.81856L14.1258,9.81856L14.1258,13.476L20.2422,13.476L20.2422,17L11.1741,17L11.1741,0L20.2422,0L20.2422,3.2807L14.1258,3.2807ZM31.6634,17L28.794,17L27.9497,14.0332L24.2977,14.0332L23.4808,17L20.5497,17L24.4282,0L27.8192,0L31.6634,17ZM26.0482,5.79224L24.8881,11.0194L27.2975,11.0194L26.0482,5.79224ZM42,2.80194L42,14.2059Q42,15.4538,41.2998,16.2308Q40.6065,17,39.467,17L31.4767,17L31.4767,0L39.467,0Q40.6065,0,41.2998,0.777008Q42,1.54617,42,2.80194ZM39.0414,13.476L39.0414,3.2807L34.4284,3.2807L34.4284,13.476L39.0414,13.476Z" fill="#177DDC" fill-opacity="1"/></g></svg>
