<svg xmlns="http://www.w3.org/2000/svg" xmlns:xlink="http://www.w3.org/1999/xlink" fill="none" version="1.1" width="23" height="17" viewBox="0 0 23 17"><g style="mix-blend-mode:passthrough"><g style="mix-blend-mode:passthrough"></g><g style="mix-blend-mode:passthrough"><g><path d="M9.853792802001953,10.1221L9.853400802001953,10.1217C9.759682802001953,10.0282,9.632710802001952,9.97571,9.500334802001953,9.97571L9.499727802001953,9.97571C9.367141802001953,9.97587,9.240049802001954,10.0287,9.146410802001952,10.1226C9.052919402001953,10.2163,9.000415802001953,10.3433,9.000415802001953,10.4756L9.000416189367954,10.4762C9.000576768001952,10.6088,9.053400402001953,10.7359,9.147266802001953,10.8296L9.147804802001954,10.8301Q10.204245802001953,11.8836,11.759905802001953,11.99Q13.397065802001954,12.1019,14.440655802001952,11.0612L19.05771580200195,6.45533Q20.101415802001952,5.41368,19.989115802001955,3.77901Q19.882315802001955,2.22585,18.825615802001956,1.17133Q17.769355802001954,0.117237,16.213075802001953,0.010866Q14.575745802001954,-0.101044,13.532155802001952,0.939629L10.415375802001954,4.04887C10.321345802001954,4.14268,10.268525802001953,4.26977,10.268365802001952,4.40236L10.268355802001953,4.40296L10.268905802001953,4.42637C10.274725802001953,4.55052,10.326585802001953,4.66804,10.414355802001953,4.75603C10.507995802001954,4.8499,10.635085802001953,4.90272,10.767675802001953,4.90288L10.768275802001954,4.90288L10.791685802001954,4.90233C10.915835802001952,4.89651,11.033355802001953,4.84466,11.121345802001953,4.75689L11.121715802001953,4.75652L14.238155802001952,1.64761Q14.960365802001952,0.927414,16.144895802001955,1.00838Q17.327915802001954,1.08923,18.119345802001952,1.87904Q18.910535802001952,2.66862,18.991595802001953,3.84759Q19.07271580200195,5.02776,18.351535802001955,5.74749L13.734655802001953,10.3532Q13.012445802001952,11.0734,11.828085802001953,10.9924Q10.645485802001954,10.9116,9.853792802001953,10.1221Z" fill-rule="evenodd" fill="#393A34" fill-opacity="1"/></g><g><path d="M13.1462,6.877863177947998L13.1466,6.878293177947998C13.2403,6.971783177947998,13.3673,7.024283177947998,13.4997,7.024283177947998L13.5003,7.024283177947998C13.6329,7.024123177947998,13.76,6.971303177947998,13.8536,6.877433177947998C13.9471,6.783713177947998,13.9996,6.656743177947998,13.9996,6.524363177947998L13.9996,6.523763177947998C13.9994,6.391173177947998,13.9466,6.264083177947998,13.8527,6.170443177947998L13.852,6.1697331779479985Q12.79562,5.116374177947998,11.2401,5.010048477947998Q9.60293,4.898142177947998,8.55935,5.938812177947998L3.942329,10.544663177948Q2.898538,11.586323177947998,3.0109247,13.220993177947998Q3.117708,14.774153177947998,4.17439,15.828683177947998Q5.23064,16.882783177948,6.78693,16.989183177948Q8.42426,17.101083177948,9.467839999999999,16.060383177947998L12.58482,12.950483177947998C12.67882,12.856703177947999,12.73164,12.729373177947998,12.73164,12.596593177947998L12.731,12.571293177947998C12.72474,12.447813177947998,12.67295,12.331023177947998,12.58562,12.243493177947997C12.49184,12.149493177947999,12.36451,12.096673177947999,12.23172,12.096673177947999L12.20643,12.097313177948C12.08294,12.103573177947998,11.96616,12.155363177947997,11.87863,12.242693177947999L8.76184,15.352383177947997Q8.039629999999999,16.072583177947998,6.8551,15.991583177947998Q5.672079999999999,15.910783177947998,4.88066,15.120983177947998Q4.08946,14.331383177947998,4.00841,13.152413177947999Q3.927266,11.972233177947999,4.64846,11.252513177947998L9.26535,6.646793177947998Q9.987549999999999,5.9266021779479985,11.17192,6.007553177947998Q12.35449,6.088393177947998,13.1462,6.877863177947998Z" fill-rule="evenodd" fill="#393A34" fill-opacity="1"/></g></g></g></svg>
