<svg xmlns="http://www.w3.org/2000/svg" xmlns:xlink="http://www.w3.org/1999/xlink" fill="none" version="1.1" width="41" height="17" viewBox="0 0 41 17"><g style="mix-blend-mode:passthrough"><path d="M10.952,0L10.952,17L7.87196,17L3.07253,7.28347L3.07253,17L0,17L0,0L3.07253,0L7.87196,9.81856L7.87196,0L10.952,0ZM11.5784,14.2059L11.5784,0L14.793,0L14.793,13.476L19.3831,13.476L19.3831,0L22.5977,0L22.5977,17L14.3295,17Q13.0885,17,12.3335,16.2308Q11.5784,15.4538,11.5784,14.2059ZM31.8138,13.4524L31.8138,17L25.1978,17Q24.2782,17,23.7176,16.3878Q23.1569,15.7678,23.1569,14.7789L23.1569,0L26.5733,0L26.5733,13.4524L31.8138,13.4524ZM41,13.4524L41,17L34.384,17Q33.4644,17,32.9038,16.3878Q32.3431,15.7678,32.3431,14.7789L32.3431,0L35.7595,0L35.7595,13.4524L41,13.4524Z" fill="#FF0000" fill-opacity="1"/></g></svg>
