<svg xmlns="http://www.w3.org/2000/svg" xmlns:xlink="http://www.w3.org/1999/xlink" fill="none" version="1.1" width="42" height="17" viewBox="0 0 42 17"><g style="mix-blend-mode:passthrough"><path d="M0,13.9626L0,3.01385Q0,1.54617,0.414218,0.777008Q0.828436,0,1.55543,0L5.5539,0Q6.23018,0.0470914,6.61903,0.8241Q7.01212,1.59326,7.01212,3.01385L7.01212,14.0568Q7.01212,15.6971,6.61481,16.3486Q6.21749,17,5.45246,17L1.55543,17Q0.803075,17,0.401538,16.3015Q0,15.603,0,13.9626ZM5.32143,13.7193L5.32143,3.0374L1.68646,3.0374L1.68646,13.7193L5.32143,13.7193ZM13.3809,2.80194L13.3809,7.04017Q13.3809,8.27239,12.8653,9.05725Q12.3538,9.84211,11.6268,9.84211L9.17535,9.84211L9.17535,17L7.35786,17L7.35786,0L11.6268,0Q12.3538,0,12.8653,0.784857Q13.3809,1.56971,13.3809,2.80194ZM11.369,6.3181L11.369,3.2807L9.17535,3.2807L9.17535,6.3181L11.369,6.3181ZM19.9653,3.54755L17.7843,3.54755L17.7843,17L15.8485,17L15.8485,3.54755L13.7098,3.54755L13.7098,0L19.9653,0L19.9653,3.54755ZM20.1547,17L20.1547,0L22.1919,0L22.1919,17L20.1547,17ZM22.6687,13.9626L22.6687,3.01385Q22.6687,1.54617,23.0829,0.777008Q23.4971,0,24.2241,0L28.2226,0Q28.8989,0.0470914,29.2877,0.8241Q29.6808,1.59326,29.6808,3.01385L29.6808,14.0568Q29.6808,15.6971,29.2835,16.3486Q28.8862,17,28.1212,17L24.2241,17Q23.4718,17,23.0702,16.3015Q22.6687,15.603,22.6687,13.9626ZM27.9901,13.7193L27.9901,3.0374L24.3552,3.0374L24.3552,13.7193L27.9901,13.7193ZM36.2187,0L36.2187,17L34.4773,17L31.7637,7.28347L31.7637,17L30.0266,17L30.0266,0L31.7637,0L34.4773,9.81856L34.4773,0L36.2187,0ZM36.5729,13.7428L40.2966,13.7428L40.2966,10.1011L37.8705,10.1011Q37.2872,10.1011,36.9279,9.52816Q36.5729,8.94737,36.5729,7.81717L36.5729,2.40951Q36.5729,1.25577,36.8899,0.627886Q37.2069,0,37.8071,0L42,0L42,3.23361L38.272,3.23361L38.272,6.87535L40.7024,6.87535Q41.3237,6.87535,41.6619,7.46399Q42,8.05263,42,9.16713L42,14.5905Q42,15.7442,41.6788,16.3721Q41.3618,17,40.7658,17L36.5729,17L36.5729,13.7428Z" fill="#177DDC" fill-opacity="1"/></g></svg>
