<svg xmlns="http://www.w3.org/2000/svg" xmlns:xlink="http://www.w3.org/1999/xlink" fill="none" version="1.1" width="56.7890625" height="16.796875" viewBox="0 0 56.7890625 16.796875"><g style="mix-blend-mode:passthrough"><path d="M0,0L12.8828,0L12.8828,9.42969L5.44531,9.74219L5.44531,16.7969L0,16.7969L0,0ZM5.44531,6.85938L9.3125,6.69531L9.3125,2.875L5.44531,2.875L5.44531,6.85938ZM27.2656,0L27.2656,16.2422L14.3516,16.7969L14.3516,0L27.2656,0ZM19.8047,13.6797L23.6875,13.5078L23.6875,2.875L19.8047,2.875L19.8047,13.6797ZM29,0L41.8828,0L41.8828,3.98438L38.3125,3.98438L38.3125,2.875L34.4453,2.875L34.4453,6.8125L41.8828,6.8125L41.8828,16.7969L29,16.2422L29,13.1484L38.3125,13.5547L38.3125,9.69531L29,9.69531L29,0ZM56.7891,0L56.7891,2.875L52.5938,2.875L52.5938,16.7969L47.1484,16.7969L47.1484,2.875L42.875,2.875L42.875,0L56.7891,0Z" fill="#D87A16" fill-opacity="1"/></g></svg>
